<?xml version="1.0" encoding="UTF-8"?>
<!DOCTYPE svg PUBLIC "-//W3C//DTD SVG 1.1//EN" "http://www.w3.org/Graphics/SVG/1.1/DTD/svg11.dtd">
<!-- Creator: CorelDRAW Home & Student 2018 -->
<svg xmlns="http://www.w3.org/2000/svg" xml:space="preserve" width="159.944mm" height="98.318mm" version="1.1" style="shape-rendering:geometricPrecision; text-rendering:geometricPrecision; image-rendering:optimizeQuality; fill-rule:evenodd; clip-rule:evenodd"
viewBox="0 0 12949.18 7959.89"
 xmlns:xlink="http://www.w3.org/1999/xlink">
 <defs>
  <style type="text/css">
   <![CDATA[
    .str0 {stroke:black;stroke-width:80.96;stroke-miterlimit:22.9256}
    .fil0 {fill:none}
    .fil1 {fill:white}
    .fil2 {fill:black;fill-rule:nonzero}
   ]]>
  </style>
 </defs>
 <g id="Plan_x0020_1">
  <metadata id="CorelCorpID_0Corel-Layer"/>
  <circle class="fil0 str0" cx="8330.71" cy="3979.95" r="3939.46"/>
  <circle class="fil1 str0" cx="4391.24" cy="3979.95" r="656.58"/>
  <circle class="fil1 str0" cx="6100.94" cy="707.87" r="656.58"/>
  <circle class="fil1 str0" cx="6147.04" cy="7193.27" r="656.58"/>
  <circle class="fil1 str0" cx="10651" cy="7173.62" r="656.58"/>
  <circle class="fil1 str0" cx="10571.97" cy="707.14" r="656.58"/>
  <circle class="fil1 str0" cx="12252.12" cy="4036.17" r="656.58"/>
  <g>
   <path class="fil2" d="M1691.77 3453.81l0 80.96 0 0 -65.32 0.26 -64.95 0.77 -64.52 1.28 -64.03 1.76 -63.5 2.27 -62.93 2.74 -62.3 3.23 -61.64 3.71 -60.91 4.16 -60.14 4.62 -59.34 5.08 -58.46 5.52 -57.55 5.96 -56.6 6.39 -55.57 6.82 -54.52 7.23 -53.41 7.64 -52.25 8.05 -51.05 8.43 -49.78 8.83 -48.5 9.21 -47.13 9.58 -45.73 9.94 -44.26 10.29 -42.76 10.65 -41.2 10.97 -39.57 11.3 -37.91 11.62 -36.19 11.91 -34.41 12.2 -32.57 12.46 -30.68 12.72 -32.11 -74.32 32.83 -13.61 34.55 -13.22 36.22 -12.85 37.86 -12.46 39.45 -12.09 41.01 -11.71 42.53 -11.33 44 -10.95 45.44 -10.57 46.83 -10.18 48.18 -9.79 49.48 -9.4 50.74 -8.99 51.96 -8.59 53.13 -8.18 54.24 -7.76 55.33 -7.34 56.36 -6.91 57.34 -6.47 58.29 -6.04 59.17 -5.59 60.03 -5.14 60.83 -4.67 61.59 -4.21 62.3 -3.74 62.96 -3.26 63.58 -2.78 64.15 -2.28 64.68 -1.8 65.15 -1.28 65.58 -0.79 65.97 -0.26 0 0zm1750.45 261.79l-36.95 72.04 -28.32 -13.84 -30.59 -13.63 -32.78 -13.38 -34.89 -13.09 -36.95 -12.79 -38.94 -12.48 -40.85 -12.14 -42.71 -11.79 -44.5 -11.43 -46.24 -11.04 -47.9 -10.65 -49.53 -10.26 -51.07 -9.84 -52.57 -9.42 -53.99 -8.99 -55.38 -8.55 -56.69 -8.1 -57.96 -7.65 -59.14 -7.17 -60.3 -6.7 -61.38 -6.2 -62.41 -5.72 -63.39 -5.21 -64.31 -4.7 -65.17 -4.18 -65.96 -3.64 -66.72 -3.1 -67.41 -2.57 -68.05 -2.01 -68.62 -1.44 -69.14 -0.87 -69.61 -0.29 0 -80.96 70.29 0.29 69.82 0.89 69.3 1.46 68.73 2.02 68.1 2.58 67.42 3.13 66.67 3.69 65.89 4.23 65.04 4.74 64.12 5.27 63.17 5.78 62.16 6.28 61.09 6.78 59.98 7.28 58.8 7.75 57.58 8.23 56.3 8.7 54.96 9.16 53.57 9.6 52.14 10.06 50.65 10.48 49.1 10.93 47.52 11.35 45.86 11.77 44.19 12.19 42.44 12.61 40.64 13.03 38.81 13.44 36.95 13.87 35.02 14.29 33.06 14.73 31.06 15.18zm234.94 166.02l-615.11 -42.57 13.47 -10.14 13.05 -10.37 12.62 -10.58 12.21 -10.8 11.78 -11.02 11.36 -11.23 10.94 -11.46 10.52 -11.67 10.1 -11.88 9.67 -12.1 9.25 -12.31 8.83 -12.53 8.4 -12.75 7.98 -12.96 7.56 -13.18 7.14 -13.4 6.72 -13.62 6.3 -13.83 5.87 -14.05 5.45 -14.27 5.04 -14.48 4.61 -14.69 4.19 -14.91 3.76 -15.13 3.34 -15.35 2.92 -15.56 2.49 -15.78 2.07 -16 1.65 -16.22 1.23 -16.43 0.81 -16.65 0.39 -16.86 0 0 393.39 474.78z"/>
  </g>
  <g>
   <path class="fil2" d="M5955.81 1469.88l39.74 615.29 0 0 -11.85 -12 -12.01 -11.55 -12.18 -11.1 -12.32 -10.66 -12.49 -10.21 -12.65 -9.76 -12.8 -9.31 -12.97 -8.87 -13.12 -8.42 -13.29 -7.97 -13.43 -7.53 -13.6 -7.08 -13.76 -6.64 -13.91 -6.19 -14.07 -5.74 -14.23 -5.29 -14.39 -4.85 -14.55 -4.4 -14.7 -3.95 -14.86 -3.5 -15.03 -3.06 -15.17 -2.61 -15.34 -2.16 -15.5 -1.72 -15.66 -1.26 -15.81 -0.83 -15.97 -0.37 -16.13 0.07 -16.29 0.53 -16.45 0.96 -16.61 1.42 -16.76 1.86 418.15 -453.11zm-247.85 757.91l-73.92 -33.03 0 0 6.56 -14.73 6.53 -14.73 6.49 -14.76 6.45 -14.78 6.41 -14.77 6.37 -14.78 6.33 -14.79 6.3 -14.81 6.26 -14.81 6.21 -14.81 6.17 -14.79 6.13 -14.8 6.08 -14.81 6.05 -14.78 5.98 -14.78 5.96 -14.78 5.89 -14.75 5.85 -14.75 5.81 -14.73 5.75 -14.72 5.72 -14.69 5.64 -14.67 5.61 -14.65 5.55 -14.62 5.51 -14.6 5.44 -14.56 5.38 -14.52 5.34 -14.5 5.28 -14.48 5.22 -14.43 5.16 -14.39 5.11 -14.35 76.31 27.02 -5.17 14.56 -5.24 14.6 -5.3 14.64 -5.34 14.65 -5.4 14.71 -5.46 14.73 -5.52 14.76 -5.57 14.79 -5.63 14.82 -5.68 14.83 -5.72 14.86 -5.78 14.89 -5.83 14.9 -5.88 14.92 -5.93 14.93 -5.97 14.95 -6.02 14.95 -6.06 14.96 -6.11 14.98 -6.16 14.97 -6.19 14.99 -6.25 14.99 -6.29 14.99 -6.34 14.99 -6.36 14.97 -6.41 14.97 -6.45 14.98 -6.49 14.96 -6.53 14.94 -6.56 14.94 -6.61 14.92 -6.64 14.9 0 0zm-581.62 953.05l-51.85 -62.19 12.67 -11.03 13.31 -12.56 13.9 -14.03 14.43 -15.47 14.9 -16.86 15.36 -18.21 15.76 -19.53 16.14 -20.81 16.51 -22.05 16.83 -23.25 17.13 -24.41 17.41 -25.56 17.67 -26.66 17.9 -27.73 18.12 -28.76 18.3 -29.78 18.48 -30.75 18.65 -31.68 18.77 -32.59 18.88 -33.46 18.97 -34.32 19.05 -35.13 19.11 -35.91 19.14 -36.66 19.16 -37.4 19.15 -38.07 19.14 -38.73 19.1 -39.37 19.04 -39.96 18.96 -40.53 18.86 -41.07 18.75 -41.57 73.92 33.03 -18.98 42.08 -19.11 41.57 -19.2 41.05 -19.28 40.46 -19.34 39.89 -19.4 39.27 -19.42 38.6 -19.44 37.93 -19.43 37.21 -19.4 36.48 -19.36 35.7 -19.31 34.92 -19.22 34.08 -19.14 33.23 -19.02 32.34 -18.89 31.41 -18.75 30.49 -18.59 29.52 -18.42 28.52 -18.22 27.49 -18.01 26.45 -17.8 25.36 -17.56 24.26 -17.32 23.12 -17.05 21.97 -16.8 20.81 -16.52 19.6 -16.25 18.36 -15.98 17.14 -15.71 15.86 -15.46 14.6 -15.24 13.29zm-244.72 151.29l279.82 -549.5 4.07 16.37 4.44 16.06 4.8 15.76 5.17 15.46 5.54 15.16 5.89 14.85 6.26 14.55 6.62 14.24 6.99 13.94 7.35 13.63 7.72 13.33 8.08 13.03 8.45 12.73 8.81 12.42 9.17 12.11 9.54 11.82 9.9 11.5 10.27 11.2 10.63 10.91 10.99 10.6 11.36 10.29 11.73 9.99 12.09 9.69 12.45 9.38 12.82 9.08 13.19 8.78 13.54 8.48 13.91 8.16 14.28 7.87 14.64 7.56 15 7.25 15.37 6.95 0 0 -590.89 176.33z"/>
  </g>
  <g>
   <path class="fil2" d="M5573.83 3719.22l364.05 -497.63 0 0 1.4 16.81 1.81 16.57 2.22 16.32 2.63 16.09 3.04 15.84 3.44 15.6 3.85 15.36 4.26 15.12 4.66 14.87 5.08 14.64 5.48 14.39 5.89 14.15 6.3 13.91 6.71 13.67 7.12 13.43 7.53 13.18 7.93 12.95 8.34 12.7 8.75 12.46 9.16 12.22 9.56 11.98 9.98 11.73 10.38 11.5 10.79 11.25 11.2 11.01 11.61 10.77 12.01 10.52 12.43 10.29 12.83 10.05 13.24 9.8 13.65 9.56 14.06 9.33 -611.42 79.57zm3895.33 -2257.9l-3629.6 2147.69 -41.23 -69.67 3629.6 -2147.69 41.23 69.67zm224.5 -179.88l-364.05 497.63 -1.4 -16.81 -1.81 -16.57 -2.22 -16.32 -2.63 -16.09 -3.04 -15.84 -3.44 -15.6 -3.85 -15.36 -4.26 -15.12 -4.66 -14.87 -5.08 -14.64 -5.48 -14.39 -5.89 -14.15 -6.3 -13.91 -6.71 -13.67 -7.12 -13.43 -7.53 -13.18 -7.93 -12.95 -8.34 -12.7 -8.75 -12.46 -9.16 -12.22 -9.56 -11.98 -9.98 -11.73 -10.38 -11.5 -10.79 -11.25 -11.2 -11.01 -11.61 -10.77 -12.01 -10.52 -12.43 -10.29 -12.83 -10.05 -13.24 -9.8 -13.65 -9.56 -14.06 -9.33 0 0 611.42 -79.57z"/>
  </g>
  <g>
   <path class="fil2" d="M5501.02 4084.88l563.59 -250.22 0 0 -7.16 15.28 -6.68 15.27 -6.21 15.26 -5.73 15.26 -5.26 15.25 -4.78 15.24 -4.31 15.24 -3.84 15.23 -3.36 15.23 -2.89 15.22 -2.41 15.21 -1.93 15.21 -1.47 15.2 -0.99 15.2 -0.52 15.19 -0.04 15.19 0.44 15.18 0.91 15.16 1.38 15.17 1.86 15.16 2.33 15.16 2.8 15.14 3.28 15.15 3.76 15.13 4.23 15.12 4.7 15.12 5.18 15.12 5.65 15.12 6.12 15.1 6.61 15.1 7.08 15.09 7.55 15.08 -569.87 -235.56zm5371.33 -28.98l-5085.98 65.78 -1.05 -80.96 5085.98 -65.78 1.05 80.96zm284.29 -44.16l-563.59 250.22 7.16 -15.28 6.68 -15.27 6.21 -15.26 5.73 -15.26 5.26 -15.25 4.78 -15.24 4.31 -15.24 3.84 -15.23 3.36 -15.23 2.89 -15.22 2.41 -15.21 1.93 -15.21 1.47 -15.2 0.99 -15.2 0.52 -15.19 0.04 -15.19 -0.44 -15.18 -0.91 -15.16 -1.38 -15.17 -1.86 -15.16 -2.33 -15.16 -2.8 -15.14 -3.28 -15.15 -3.76 -15.13 -4.23 -15.12 -4.7 -15.12 -5.18 -15.12 -5.65 -15.12 -6.12 -15.1 -6.61 -15.1 -7.08 -15.09 -7.55 -15.08 0 0 569.87 235.56z"/>
  </g>
 </g>
</svg>
