<svg id="Logo" width="1000px" height="240px"
    xmlns="http://www.w3.org/2000/svg"
    xmlns:xlink="http://www.w3.org/1999/xlink" viewBox="0 70 1000 240">
    <defs>
        <style>.cls-1,.cls-14,.cls-2{fill:none;}.cls-1{clip-rule:evenodd;}.cls-3{fill:#002837;}.cls-4{fill:#e66928;}.cls-10,.cls-5{fill:#fff;}.cls-6{clip-path:url(#clip-path);}.cls-7{clip-path:url(#clip-path-2);}.cls-8{clip-path:url(#clip-path-3);}.cls-9{clip-path:url(#clip-path-4);}.cls-10,.cls-14{fill-rule:evenodd;}.cls-11{clip-path:url(#clip-path-5);}.cls-12{clip-path:url(#clip-path-7);}.cls-13{clip-path:url(#clip-path-9);}</style>
        <clipPath id="clip-path" transform="translate(1.57 0.88)">
            <path class="cls-1" d="M201.76,108.66c2.2.07,4.41-1.87,10-1a12.73,12.73,0,0,1,3.84,1.62,4.4,4.4,0,0,0-1.25-1.59c-1.93-1.57-4.3-2-7.09-2.26a3.77,3.77,0,0,1,.59-.62,3,3,0,0,0-2.47.35,1.92,1.92,0,0,1,.15-1,4.19,4.19,0,0,0-2.34.9s-.13-.31.38-1.13a3.57,3.57,0,0,0-3.21,2.65,2.15,2.15,0,0,0-.06.6A1.56,1.56,0,0,0,201.76,108.66Z"/>
        </clipPath>
        <clipPath id="clip-path-2" transform="translate(1.57 0.88)">
            <rect class="cls-2" x="30.31" y="57.13" width="230.75" height="230.75"/>
        </clipPath>
        <clipPath id="clip-path-3" transform="translate(1.57 0.88)">
            <path class="cls-1" d="M204.81,149.34c-5.29.58-11.16,0-12.4,1.3s1.56,1.77,4.49,2.94a17.81,17.81,0,0,0,7.63,1.09,10.48,10.48,0,0,0,6.73-2.94c1-1,2.65-2.79,2.65-3.62C213.08,147.7,209.56,148.34,204.81,149.34Z"/>
        </clipPath>
        <clipPath id="clip-path-4" transform="translate(1.57 0.88)">
            <rect class="cls-2" x="30.31" y="55.48" width="230.75" height="230.75"/>
        </clipPath>
        <clipPath id="clip-path-5" transform="translate(1.57 0.88)">
            <path class="cls-1" d="M168.71,112.35c4.57-3,11.61-3.4,17.42-2.75.39.05,1.24.08,1.34.09a1.17,1.17,0,0,0,1.21-1.39,5.78,5.78,0,0,0-.35-1.48,5.47,5.47,0,0,0-2.4-2.58,3.24,3.24,0,0,0-1.16-.37,2.29,2.29,0,0,1,.5,1.64,10.47,10.47,0,0,0-1.87-1.18,2.14,2.14,0,0,0-1.05-.25,2.82,2.82,0,0,1,.43,1.58,4.11,4.11,0,0,0-3-.86,2.24,2.24,0,0,1,.9,1.17,54.14,54.14,0,0,0-8.06,1.61c-4.76,1.31-6.9,2.91-8.85,5.76-2.46,3.59-2.57,9.2-2.22,13.68C162.38,121.53,164.55,115.12,168.71,112.35Z"/>
        </clipPath>
        <clipPath id="clip-path-7" transform="translate(1.57 0.88)">
            <path class="cls-1" d="M99.64,167.53a19.36,19.36,0,0,1,1.74,4.15,11.3,11.3,0,0,0-.86-6c-.17-.83,1.74.24,1.74.24-.09-1.2-2.48-3.42-2.48-3.42s-.15-.3,1.27,0c.47.09-3.2-2.29-3.2-2.29s.05-.38,1.63-.26c-.44-.52-4.31-2-4.31-2-11-3.57-12.64-1.42-13.59,0a26.28,26.28,0,0,1,4.86.08,17,17,0,0,1,9.37,4.5A20,20,0,0,1,99.64,167.53Z"/>
        </clipPath>
        <clipPath id="clip-path-9" transform="translate(1.57 0.88)">
            <path class="cls-1" d="M121.37,167.16a11.94,11.94,0,0,1-1.12,4.52,6.42,6.42,0,0,0,5.17-6.14c.06-3.89-2.1-6.64-5.28-7a5.09,5.09,0,0,0-2.17.19A11,11,0,0,1,121.37,167.16Z"/>
        </clipPath>
    </defs>
    <title>Les Furets_Logo_White_RGB</title>
    <path class="cls-4" d="M332,222.64h0a11.39,11.39,0,0,1-4.84,1c-3.18,0-4.68-2-4.68-7V113.78s-4.14-.69-12.23,1a45.24,45.24,0,0,0-11.49,3.73V218.79c0,15.36,8,23.72,22,23.72a44.12,44.12,0,0,0,16-3h.05a30.77,30.77,0,0,0-1.13-8.85C334.3,224.93,332,222.64,332,222.64Z" transform="translate(1.57 0.88)"/>
    <path class="cls-4" d="M386.42,148.88c-25.89,0-40.25,20.71-40.25,47.43,0,27.72,14.86,46.43,43.25,46.43a52.14,52.14,0,0,0,33.57-12h0l.06,0a27.22,27.22,0,0,0-9.9-13.33l-.15.1c-7.62,5.27-13.93,7.58-21.4,7.58-11.35,0-19.37-5-21-22h55.28c.17-2.51.5-6.18.5-9.19C426.33,165.58,411.47,148.88,386.42,148.88Zm16.36,39.25H370.55c1.17-16.71,7-23,16.37-23,11.35,0,15.86,8.68,15.86,22Z" transform="translate(1.57 0.88)"/>
    <path class="cls-4" d="M480.7,187c-15.53-4.51-18.54-6.85-18.54-12,0-4.85,4.34-8,12.86-8,7,0,19.91,4.21,27.11,11h0l0,0,0-.09a33.11,33.11,0,0,0,2.71-8.5,26.22,26.22,0,0,0,.53-8.93h0c-8.35-6.68-19.21-10.69-32.07-10.69-21.38,0-35.07,11.35-35.07,26.39,0,13.36,8.35,22.21,26.22,27.22C480.87,207.86,484,210,484,216.88c0,5.84-5.68,9.52-14.7,9.52a36.79,36.79,0,0,1-22-7.77c-1.61-1.26-2.69-2.14-2.69-2.14a23.27,23.27,0,0,0-6.41,6.26,23.66,23.66,0,0,0-4.14,7.9l0,0,0,.06c8.35,7.68,20.71,12.86,36.08,12.86,21,0,38.24-10.36,38.24-28.73C508.42,199.17,498.4,191.82,480.7,187Z" transform="translate(1.57 0.88)"/>
    <path class="cls-5" d="M731.81,150.38a31.78,31.78,0,0,0-8.86-1.33c-10.35,0-18.87,7.34-23,19.7l-.27-2.15V151.37s-4-1.86-11.22-1.86-11.23,1.86-11.23,1.86v88.7h.24a39.27,39.27,0,0,0,23.25,0h.23V194.3c3.17-14.19,8.18-22.21,19-22.21a23,23,0,0,1,8.25,1.5,52.73,52.73,0,0,1,12-20.6Z" transform="translate(1.57 0.88)"/>
    <path class="cls-5" d="M859.15,124.42v-.14s-4.14-.69-12.23,1A45.24,45.24,0,0,0,835.43,129v22.57H823l.17,16.7h12.23V219.3c0,15.36,8,23.71,22.05,23.71a44.34,44.34,0,0,0,16-3v0h0a31,31,0,0,0-1.12-8.86c-1.43-5.71-3.76-8-3.76-8a11.39,11.39,0,0,1-4.84,1c-3.18,0-4.68-2-4.68-7V168.25h15.42l2.34-16.7H859.15Z" transform="translate(1.57 0.88)"/>
    <path class="cls-5" d="M636.27,151.37v62.14c-4.18,7.18-9.69,11.52-16.2,11.52s-9.69-3.17-9.69-12.85V151.24H553.24v-7.87c0-8.35,3.17-12,11.19-12a33.58,33.58,0,0,1,14.36,3.34h0A31.36,31.36,0,0,0,585.3,119h0a53.09,53.09,0,0,0-23.37-5.34c-21.55,0-32.4,12.69-32.4,29.06v8.54H519.06a94.39,94.39,0,0,1-1.76,18.23h12.22v70.6h.23a39.27,39.27,0,0,0,23.25,0h.24v-70.6h33.43v45.71c0,17,8.35,27.56,24.72,27.56,11.85,0,20.54-4.68,26.89-14.53l1.14,11.62V240h0v0h0a33.7,33.7,0,0,0,20.46,0H660v-88.7s-4.23-1.86-11.86-1.86S636.27,151.37,636.27,151.37Z" transform="translate(1.57 0.88)"/>
    <path class="cls-5" d="M775.06,148.88c-25.89,0-40.25,20.71-40.25,47.43,0,27.72,14.86,46.43,43.25,46.43a52.14,52.14,0,0,0,33.57-12v0h0a27.23,27.23,0,0,0-9.87-13.31v0h0l-.38.28c-7.5,5.14-13.75,7.4-21.13,7.4-11.36,0-19.38-5-21-22h55.28c.17-2.51.5-6.18.5-9.19C815,165.58,800.11,148.88,775.06,148.88Zm16.37,39.25H759.19c1.17-16.71,7-23,16.37-23,11.35,0,15.87,8.68,15.87,22Z" transform="translate(1.57 0.88)"/>
    <path class="cls-5" d="M929,187c-15.53-4.51-18.54-6.85-18.54-12,0-4.85,4.34-8,12.86-8,7,0,19.91,4.21,27.11,11v0h0v0a32.56,32.56,0,0,0,2.73-8.52,26.4,26.4,0,0,0,.52-8.94h0c-8.35-6.68-19.21-10.69-32.07-10.69-21.38,0-35.07,11.35-35.07,26.39,0,13.36,8.35,22.21,26.22,27.22,16.37,4.51,19.54,6.68,19.54,13.53,0,5.84-5.68,9.52-14.7,9.52a36.79,36.79,0,0,1-22-7.77c-1.61-1.26-2.68-2.14-2.68-2.14a23.21,23.21,0,0,0-6.42,6.26,23.66,23.66,0,0,0-4.14,7.9l0,0,0,.06c8.35,7.68,20.71,12.86,36.08,12.86,21,0,38.24-10.36,38.24-28.73C956.69,199.17,946.67,191.82,929,187Z" transform="translate(1.57 0.88)"/>
    <circle class="cls-2" cx="141.22" cy="179.66" r="122.33"/>
    <g class="cls-6">
        <g class="cls-7">
            <rect class="cls-5" x="199.77" y="102.68" width="19.44" height="9.51"/>
        </g>
    </g>
    <g class="cls-8">
        <g class="cls-9">
            <rect class="cls-5" x="191.61" y="146.87" width="25.94" height="10.81"/>
        </g>
    </g>
    <path class="cls-10" d="M215.39,129a25,25,0,0,1-7.91-4.39l-6.29-5a5.55,5.55,0,0,0-3.82-1.24,3.92,3.92,0,0,0-3.67,2.41,16.6,16.6,0,0,1-2,2.85c-1.45,1.8-3.68,4-8.75,8-5.52,4.29-9.91,6.58-11.1,8.22-2.63,3.65.66,7,3.77,8,4.4,1.2,10.1.62,14.81,0,4.43-.56,12.57-3.23,16.23-3.59,6.72-.65,11.67,3.14,16.26-3.16C225.61,136.87,222.15,131,215.39,129Zm-4.72,7.39-.08.08c-.43-.38.2-.59-.47-.54-1.19.11-3.32,1-3.24,2.05a1.67,1.67,0,0,0,.53,1.08,3.07,3.07,0,0,1-1.85.78,5.61,5.61,0,0,1-2-.26,1.66,1.66,0,0,0,.48-1.14,2,2,0,0,0-2.13-1.9,2.19,2.19,0,0,0-2,1.05c-.32-.27-.61-.54-.87-.79a2.29,2.29,0,0,1-.1-3.1c1.23-1.42,3.3-3.27,5.7-3.36s4.58,1.62,5.91,2.95A2.29,2.29,0,0,1,210.67,136.38Z" transform="translate(1.57 0.88)"/>
    <g class="cls-11">
        <g class="cls-7">
            <rect class="cls-5" x="160.9" y="102.68" width="31.43" height="27.29"/>
        </g>
    </g>
    <g class="cls-12">
        <g class="cls-7">
            <rect class="cls-5" x="81.09" y="154.78" width="24.81" height="19.85"/>
        </g>
    </g>
    <g class="cls-13">
        <g class="cls-7">
            <rect class="cls-5" x="117.48" y="157.26" width="11.58" height="17.37"/>
        </g>
    </g>
    <path class="cls-14" d="M82,195.76c3.27.32,4.63,1.18,4.75,2.39,3-.9,5.42-2.73,5.86-5,1.14-7.92-7.3-9-9.71-9.73-10.17-3.28-9.17-9.71-9.54-12.18q-13.56,6.34-20.09,3.57c-6.54-2.78-5.61,9.27-1.87,13Q58,196.15,82,195.76Z" transform="translate(1.57 0.88)"/>
    <path class="cls-10" d="M177.8,118.77c-4,.25-8.2,4-6.52,9.11.34,1,2,1.26,4.13,1a4.62,4.62,0,1,1,7.42-3.67,4.58,4.58,0,0,1-.24,1.44c1.72-.9,2.91-2,2.83-2.93C185.18,120.51,181.77,118.51,177.8,118.77Z" transform="translate(1.57 0.88)"/>
    <path class="cls-10" d="M211.71,116.81c-3.1-.68-7.39,1.4-7.71,5.33l2.66,2a3.68,3.68,0,0,1-.37-1.22.69.69,0,0,1,0-.13,2.75,2.75,0,0,1,0-.41,4,4,0,0,1,8,0,3.89,3.89,0,0,1-.37,1.67c1.27-.31,2.2-.79,2.38-1.44C217,120.09,214.91,117.5,211.71,116.81Z" transform="translate(1.57 0.88)"/>
    <path class="cls-10" d="M88.64,178.77a4.68,4.68,0,0,1,0-9.36,4.63,4.63,0,0,1,3.16,1.24l0-.22c-.74-4.57-4-7.84-7.28-7.39l-.14,0a5.43,5.43,0,0,0-3.77,3,10.26,10.26,0,0,0-.91,6.43c.76,4.64,4.08,8,7.43,7.37a4.66,4.66,0,0,0,2.36-1.19A4.47,4.47,0,0,1,88.64,178.77Z" transform="translate(1.57 0.88)"/>
    <circle class="cls-5" cx="176.86" cy="123.4" r="1.7"/>
    <circle class="cls-5" cx="209.94" cy="120.91" r="1.7"/>
    <circle class="cls-5" cx="88.37" cy="171.78" r="1.7"/>
    <path class="cls-10" d="M228.5,225l-.62-1.08-2.3-4.07c-4.36-7.72-7.3-12.87-9-15.1a3.49,3.49,0,0,1-.69-1.89c-.09-1.71-.18-3.58-.17-5.31h0l2.39-24.75h0c1.35-3.45,1.37-3.48,2.59-5,.53-.69,1.27-1.63,2.35-3.11,7.52-10.32,14-21.29,10.21-31.68-1.71-4.74-5-9.71-7.91-14.09-1.71-2.59-4-6.09-4.34-7.4h0c1.07-3.26,1.82-7.86-.1-12.15a11,11,0,0,0-9.87-6,9.74,9.74,0,0,0-5.15,1.92s0,0,0,0c-15-3.26-30.56.19-32.58.67h0c-1.15.09-6.35.64-10.19,3.2,0,0,0,0,0,0-1.76-1.19-4.86-2.4-9.55-1.29-5.17,1.23-8,6.05-8.39,10-.59,5.64,1.33,9.55,4.93,14.07,0,0,0,0,0,0-2.49,7.19-3.42,13.7-2.79,19.37,1.09,9.79,4.24,15.76,7,21a49.41,49.41,0,0,1,3.39,7.33c4.44,13.21,6.62,25.21,6,33.07h0c-.75,1-1.74,2.43-2.91,4-5.46,7.52-14.59,20.11-18.71,27.12L142,234a86.66,86.66,0,0,0-6.22,19.25,103.33,103.33,0,0,0-8.34-10.64,65.88,65.88,0,0,1-6-7.61h0a1.71,1.71,0,0,1-.27-1.14c1.11-7.67,7.41-29,10.88-37.68,3-7.52,3.78-21.93.39-30.4,0-.53,0-1,0-1.35a11.33,11.33,0,0,0-3.85-11.21,10.07,10.07,0,0,0-10.32-1.54,5.16,5.16,0,0,1-.68,0c-.25,0-.54,0-.85,0a57.27,57.27,0,0,0-13-3.65,11.47,11.47,0,0,0-1.86-2.58,9.44,9.44,0,0,0-9.74-2.06c-3.34,1.13-6.23,4.29-7.64,6.06-2.71.2-7.83,1-11.72,5A12,12,0,0,1,75.06,159c.8-1.13,3.22-4.55,10.77-4.93l1.08-.06.64-.87c1.57-2.14,4.06-4.61,6.1-5.3a4.91,4.91,0,0,1,5,.89,7.17,7.17,0,0,1,1.48,2.33l.48,1.27,1.35.17a52.43,52.43,0,0,1,13.62,3.76l.69.3.74-.18a3.78,3.78,0,0,1,.74-.05,6.12,6.12,0,0,0,2.43-.46,5.5,5.5,0,0,1,5.6,1,6.83,6.83,0,0,1,2.18,7,3.29,3.29,0,0,0,0,.82,10.4,10.4,0,0,1,0,1.38l0,.58.23.52c3.15,7.28,2.46,20.71-.22,27.41-3.44,8.57-9.34,28.43-10.94,37.39a1.58,1.58,0,0,1-1.24,1.26c-11.13,2.15-17,3.54-17,3.54l-.06,0s0,0,0,0S94,234,83.83,230.85a2,2,0,0,1-1.4-2.08,86.42,86.42,0,0,0,.08-13.46c-.09-.82-.21-1.67-.38-2.54-.51-2.74-2.61-5.4-6.08-7.68a61.08,61.08,0,0,0-5.53-3.16c-1.85-1-5.25-2.77-6.53-3.62a18,18,0,0,1-4.37-4.54c5.48,1.88,13,2.76,22.38,2.61,1.85.18,4,.65,4.17,1.83a.57.57,0,0,0,.27.45.6.6,0,0,0,.34.11l.18,0c3.42-1,5.83-3.12,6.3-5.47,1.08-7.51-5.77-9.27-9.06-10.12l-1.08-.29c-8.5-2.75-8.82-7.62-9-10.54,0-.43,0-.81-.1-1.14a.62.62,0,0,0-.32-.46.61.61,0,0,0-.56,0l-1.62.73a6,6,0,0,1-1.58.68c-7.24,3-12.74,3.7-16.39,2.15-2.72-1.16-4.1.12-4.67,1-2,2.92-.81,10.06,2.09,13a12.67,12.67,0,0,0,1,1.16c1,2.53,4.44,9.37,9.48,12.72,1.94,1.28,6.9,3.85,7,3.87,2,1.05,3.9,2.11,5.12,2.91,2.38,1.57,3.84,3.25,4.11,4.73.14.74.25,1.48.32,2.18a76.51,76.51,0,0,1-.69,17.26C75.64,240,69.72,244.73,65,248.57c-1.41,1.14-2.75,2.21-3.9,3.28a2.33,2.33,0,0,0-.24,3.18,2.3,2.3,0,0,0,1.74.8,2.25,2.25,0,0,0,1.55-.61c1-1,2.33-2,3.71-3.11,3.26-2.63,7-5.65,9.88-9.55a1,1,0,0,1,1.6,0c5.12,7,14.81,18,19.1,26.72,7.77-10.26,17.64-21.61,19.2-23.66a12.33,12.33,0,0,0,1.72-3.18,1,1,0,0,1,1.77-.3c.92,1.13,1.91,2.28,2.93,3.46,3.58,4.17,7.62,8.88,10.47,14.41a182,182,0,0,0-2.66,27.76,2.34,2.34,0,0,0,2.07,2.39,2.28,2.28,0,0,0,2.48-2.27A177.56,177.56,0,0,1,139,260.73a2.42,2.42,0,0,0,.2-1.13c1.52-8.49,3.75-17.06,6.91-23.51h0c3-5,8.59-13,13.51-19.88a1.15,1.15,0,0,1,2,.29c.16.47.35.95.56,1.46,2.59,6,15.76,18.22,30.64,26.49a0,0,0,0,0,0,0l4.91-13.92a2.27,2.27,0,0,0-.37-2.16l-4-5.08a1.65,1.65,0,0,1-.18-1.79c1-1.82,3.38-5.54,7.31-5.9,3.4-.27,6.4,2.55,7.72,4a1.66,1.66,0,0,1,.27,1.8l-2.61,5.67a1.77,1.77,0,0,0,0,1.54l6.5,12.59a0,0,0,0,0,0,0c1.76-5.15,5.63-10.83,6.05-16.83.09-1.28.23-2.63.33-4a.89.89,0,0,1,1.65-.37l1.16,2.07c.77,1.35,1.54,2.73,2.32,4.09l.62,1.09c3.32,5.83,7.46,13.08,7.77,21.44a2.27,2.27,0,0,0,2.27,2.19h.08a2.27,2.27,0,0,0,2.19-2.36C236.52,239,232.07,231.25,228.5,225ZM57.35,183.31c-1.73-1.68-3.48,1-2,2.17L56,186a2,2,0,0,1-1.22.13,3.32,3.32,0,0,1-1.65-.8,2.4,2.4,0,0,1-.24-.22,4.88,4.88,0,0,0-.11-2.52.81.81,0,0,0-1.18-.45,7.5,7.5,0,0,1,0-3.07A2.07,2.07,0,0,1,54,177.53c1.38.3,5.9,1.12,6.71,2.89a1.53,1.53,0,0,1-.1,1.59C59.89,183.13,58.08,184,57.35,183.31Zm52.34,59.58a20.62,20.62,0,0,1-1,5.26.66.66,0,0,1-1,.36l-6-3.54a5.07,5.07,0,0,1-5-.36l-6.49,2.67a.65.65,0,0,1-.89-.47,18.27,18.27,0,0,1-.29-5.21,23.81,23.81,0,0,1,1-5,.66.66,0,0,1,1-.35l6.07,3.57a0,0,0,0,0,0,0c.94-.77,4.08-.62,4.79.34h0l6.48-2.66a.65.65,0,0,1,.89.51A30.67,30.67,0,0,1,109.69,242.89Zm104.09-71.47a2.51,2.51,0,0,0-.15.6L211.2,197.2v.2c0,2.53.15,5.27.28,7.47,0,.7.08,1.36.11,1.95a1.71,1.71,0,0,1-1.05,1.67c-9.64,4-31.54-.6-40.82-4.45a2.25,2.25,0,0,1-1.38-2.17c.24-5.67-.52-16.46-6.3-33.69a54,54,0,0,0-3.68-8c-2.59-4.91-5.52-10.47-6.52-19.4-.59-5.3.41-11.54,3-18.55a2.3,2.3,0,0,0-.4-2.25c-3.5-4.21-5.2-7.18-4.72-11.69.21-2,1.69-5.28,4.91-6,4.63-1.1,6.48,1,6.67,1.25a2.3,2.3,0,0,0,3,.52,2.11,2.11,0,0,0,.37-.3c2.4-2.39,7.43-3.18,9.16-3.29a1.84,1.84,0,0,0,.41-.06c.17,0,16.66-4,31.61-.48a2.3,2.3,0,0,0,1.79-.3l.55-.37a6.14,6.14,0,0,1,3.07-1.35,6.44,6.44,0,0,1,5.56,3.27c1.42,3.18.65,6.84-.23,9.34a2.19,2.19,0,0,0-.11.84v.17c.12,2.2,1.93,5,5.13,9.87,2.76,4.17,5.89,8.9,7.42,13.13,1.79,4.95,1.86,11.71-9.61,27.45-1,1.42-1.74,2.33-2.26,3-1.65,2.12-1.75,2.36-3.31,6.39Z" transform="translate(1.57 0.88)"/>
    <path class="cls-10" d="M66.18,166.23a4.64,4.64,0,0,1,.73-2.5,1.67,1.67,0,0,0,1.27.59,1.7,1.7,0,0,0,1.7-1.7,1.72,1.72,0,0,0-.26-.9,4.58,4.58,0,0,1,1.24-.17,4.66,4.66,0,0,1,3.27,1.34,14.37,14.37,0,0,0-.09-1.72c-.58-4.6-3.48-8.08-6.63-8.1a5.63,5.63,0,0,0-.58,0c-3.36.44-5.6,4.77-5,9.65s3.85,8.51,7.21,8.07l.16-.21A4.69,4.69,0,0,1,66.18,166.23Z" transform="translate(1.57 0.88)"/>
    <path class="cls-14" d="M82,195.76c3.27.32,4.63,1.18,4.75,2.39,3-.9,5.42-2.73,5.86-5,1.14-7.92-7.3-9-9.71-9.73-10.17-3.28-9.17-9.71-9.54-12.18q-13.56,6.34-20.09,3.57c-6.54-2.78-5.61,9.27-1.87,13Q58,196.15,82,195.76Z" transform="translate(1.57 0.88)"/>
    <circle class="cls-5" cx="176.86" cy="123.4" r="1.7"/>
    <circle class="cls-5" cx="209.94" cy="120.91" r="1.7"/>
    <circle class="cls-5" cx="88.37" cy="171.78" r="1.7"/>
    <path class="cls-14" d="M82,195.76c3.27.32,4.63,1.18,4.75,2.39,3-.9,5.42-2.73,5.86-5,1.14-7.92-7.3-9-9.71-9.73-10.17-3.28-9.17-9.71-9.54-12.18q-13.56,6.34-20.09,3.57c-6.54-2.78-5.61,9.27-1.87,13Q58,196.15,82,195.76Z" transform="translate(1.57 0.88)"/>
    <circle class="cls-5" cx="176.86" cy="123.4" r="1.7"/>
    <circle class="cls-5" cx="209.94" cy="120.91" r="1.7"/>
    <circle class="cls-5" cx="88.37" cy="171.78" r="1.7"/>
    <path class="cls-5" d="M144.92,292.33A134.42,134.42,0,0,1,49.24,252.7a3.56,3.56,0,0,1,5-5,128.11,128.11,0,0,0,186.13-5.09,3.56,3.56,0,1,1,5.3,4.74,134.95,134.95,0,0,1-100.78,45Z" transform="translate(1.57 0.88)"/>
</svg>